HIERARCHY
ROOT SpineBase
{
  OFFSET 0.000000 0.000000 0.000000
  CHANNELS 6 Xposition Yposition Zposition Zrotation Xrotation Yrotation
  JOINT SpineMid
  {
    OFFSET 0.000000 24.205055 0.000000
    CHANNELS 3 Zrotation Xrotation Yrotation
    JOINT SpineShoulder
    {
      OFFSET 0.115325 17.978119 -0.539196
      CHANNELS 3 Zrotation Xrotation Yrotation
      JOINT Neck
      {
        OFFSET 0.067228 5.951338 -0.413643
        CHANNELS 3 Zrotation Xrotation Yrotation
        JOINT Head
        {
          OFFSET 1.591923 9.354037 2.754003
          CHANNELS 3 Zrotation Xrotation Yrotation
          End Site
          {
            OFFSET 0 0 0
          }
        }
      }
      JOINT ShoulderLeft
      {
        OFFSET -2.380018 -4.730888 -12.684907
        CHANNELS 3 Zrotation Xrotation Yrotation
        JOINT ElbowLeft
        {
          OFFSET 0.827899 -21.857957 -2.737672
          CHANNELS 3 Zrotation Xrotation Yrotation
          JOINT WristLeft
          {
            OFFSET 2.842971 -19.785622 -0.053942
            CHANNELS 3 Zrotation Xrotation Yrotation
            JOINT HandLeft
            {
              OFFSET -0.192901 -6.026009 1.051316
              CHANNELS 3 Zrotation Xrotation Yrotation
              JOINT HandTipLeft
              {
                OFFSET 1.496890 -5.336967 -1.191017
                CHANNELS 3 Zrotation Xrotation Yrotation
                End Site
                {
                  OFFSET 0 0 0
                }
              }
              JOINT ThumbLeft
              {
                OFFSET 1.487825 1.058386 0.550318
                CHANNELS 3 Zrotation Xrotation Yrotation
                End Site
                {
                  OFFSET 0 0 0
                }
              }
            }
          }
        }
      }
      JOINT ShoulderRight
      {
        OFFSET 3.975779 -5.368108 13.748202
        CHANNELS 3 Zrotation Xrotation Yrotation
        JOINT ElbowRight
        {
          OFFSET 4.430550 -23.605548 -13.738177
          CHANNELS 3 Zrotation Xrotation Yrotation
          JOINT WristRight
          {
            OFFSET 3.727094 -16.873250 19.725245
            CHANNELS 3 Zrotation Xrotation Yrotation
            JOINT HandRight
            {
              OFFSET 1.830248 -21.774810 17.485854
              CHANNELS 3 Zrotation Xrotation Yrotation
              JOINT HandTipRight
              {
                OFFSET -0.693671 -2.210980 -1.707555
                CHANNELS 3 Zrotation Xrotation Yrotation
                End Site
                {
                  OFFSET 0 0 0
                }
              }
              JOINT ThumbRight
              {
                OFFSET 0.124177 0.998557 -1.580446
                CHANNELS 3 Zrotation Xrotation Yrotation
                End Site
                {
                  OFFSET 0 0 0
                }
              }
            }
          }
        }
      }
    }
  }
  JOINT HipLeft
  {
    OFFSET -1.125355 -0.114221 -5.240805
    CHANNELS 3 Zrotation Xrotation Yrotation
    JOINT KneeLeft
    {
      OFFSET -9.181578 -42.714387 1.796276
      CHANNELS 3 Zrotation Xrotation Yrotation
      JOINT AnkleLeft
      {
        OFFSET -6.833138 -32.270887 1.672407
        CHANNELS 3 Zrotation Xrotation Yrotation
        JOINT FootLeft
        {
          OFFSET 2.999994 -6.135474 -2.194342
          CHANNELS 3 Zrotation Xrotation Yrotation
          End Site
          {
            OFFSET 0 0 0
          }
        }
      }
    }
  }
  JOINT HipRight
  {
    OFFSET 1.818716 0.912741 -0.077094
    CHANNELS 3 Zrotation Xrotation Yrotation
    JOINT KneeRight
    {
      OFFSET -4.021385 -31.845281 -7.587903
      CHANNELS 3 Zrotation Xrotation Yrotation
      JOINT AnkleRight
      {
        OFFSET -10.235926 -31.893424 3.552356
        CHANNELS 3 Zrotation Xrotation Yrotation
        JOINT FootRight
        {
          OFFSET 4.684602 -4.915195 -1.916242
          CHANNELS 3 Zrotation Xrotation Yrotation
          End Site
          {
            OFFSET 0 0 0
          }
        }
      }
    }
  }
}
MOTION
Frames: 13
Frame Time: 0.033333
-61.358351 83.782433 341.891029 -1.180311 2.570371 -51.227947 0.208709 0.024542 51.209763 0.182721 -0.147807 -0.035471 12.038829 -0.608315 -3.241465 0.000000 0.000000 0.000000 20.588901 10.181452 -3.248583 9.179032 -12.537124 5.965268 12.320399 3.547934 6.153121 -20.471184 -10.774356 -12.594498 0.000000 0.000000 0.000000 0.000000 0.000000 0.000000 1.446205 25.379639 4.287280 53.114862 -2.861825 84.075989 12.173043 -36.739540 24.566764 -47.847356 5.689849 -116.859922 0.000000 0.000000 0.000000 0.000000 0.000000 0.000000 14.724088 10.815158 51.369074 -6.181340 -2.365942 0.691553 22.691560 10.217587 -12.581339 0.000000 0.000000 0.000000 21.223473 -3.128325 51.610982 -9.798602 8.862145 3.859562 25.880892 18.632052 -4.983736 0.000000 0.000000 0.000000
-63.944839 84.162685 341.773527 -2.073012 2.537006 -61.244903 0.116440 -0.017456 61.213188 0.132500 -0.142007 -0.081016 13.360465 -0.475072 -3.255368 0.000000 0.000000 0.000000 21.927303 11.137099 -3.341293 12.454378 -9.331215 6.511036 9.508342 1.031551 7.050809 -18.091316 -7.483844 -12.609978 0.000000 0.000000 0.000000 0.000000 0.000000 0.000000 4.314135 24.012926 2.904623 55.487743 -3.352660 86.169623 -15.270943 -65.866378 23.424067 -11.759947 36.242467 -136.099186 0.000000 0.000000 0.000000 0.000000 0.000000 0.000000 11.163839 10.975892 61.439885 3.011444 -3.534141 1.504667 20.288971 12.322761 -14.332132 0.000000 0.000000 0.000000 21.091652 2.615374 60.107240 -17.645128 3.692736 5.596260 27.473259 17.633990 -6.477320 0.000000 0.000000 0.000000
-66.170530 84.047259 341.631556 -2.506236 2.440492 -66.033939 0.122999 -0.009759 65.996795 0.085507 -0.148521 -0.102639 13.377765 0.193291 -3.253100 0.000000 0.000000 0.000000 22.141839 12.652883 -3.473028 15.200533 -6.171113 6.838890 7.230750 -2.017573 7.887741 -16.427297 -5.712716 -12.649629 0.000000 0.000000 0.000000 0.000000 0.000000 0.000000 5.800477 22.096646 1.964528 58.335591 -10.807765 83.195404 -61.772447 -68.715201 -16.028599 24.958362 36.566348 -159.609714 0.000000 0.000000 0.000000 0.000000 0.000000 0.000000 9.678985 10.070897 66.359572 9.720002 -3.593091 1.863024 17.602767 14.912116 -14.974150 0.000000 0.000000 0.000000 20.407205 5.036412 64.341354 -24.748386 0.098612 6.219518 35.193869 19.730902 -7.766336 0.000000 0.000000 0.000000
-68.818619 84.163248 341.774819 -3.382776 2.290418 -69.352118 0.134747 -0.016950 69.302111 0.034421 -0.135055 -0.142494 13.252983 0.608810 -2.963593 0.000000 0.000000 0.000000 22.174088 14.056673 -3.408656 17.611198 -3.988890 7.068398 6.546564 -2.434067 7.913955 -16.657817 -4.572425 -12.455600 0.000000 0.000000 0.000000 0.000000 0.000000 0.000000 7.067527 19.791965 1.462727 51.353092 -15.958295 71.375807 -76.497819 -65.407784 -35.561844 40.061765 30.053044 -157.789587 0.000000 0.000000 0.000000 0.000000 0.000000 0.000000 10.078758 11.565185 69.651671 12.202437 -2.505604 1.491000 10.679718 14.086405 -13.102498 0.000000 0.000000 0.000000 20.012523 7.615138 66.957256 -31.251513 -2.059701 6.337806 34.883730 20.822137 -4.753623 0.000000 0.000000 0.000000
-71.397857 84.305418 342.237350 -4.237479 1.802070 -71.326952 0.127402 0.115775 71.259099 0.074992 -0.139940 -0.167057 11.887255 0.945479 -2.363167 0.000000 0.000000 0.000000 20.363766 15.264949 -2.995990 20.380888 -2.169196 7.044072 6.336247 -0.468077 6.862362 -16.747655 -5.735730 -11.880855 0.000000 0.000000 0.000000 0.000000 0.000000 0.000000 8.541848 18.613729 0.730935 43.373641 -26.971345 57.546008 -62.651389 -47.714466 -32.888470 54.039168 14.864658 -144.677094 0.000000 0.000000 0.000000 0.000000 0.000000 0.000000 9.953701 14.511902 71.385451 11.705300 -2.336366 1.467655 6.393830 13.584755 -11.698989 0.000000 0.000000 0.000000 19.256115 9.790266 68.310416 -35.644986 -3.349626 6.177809 25.224885 16.446686 -1.337611 0.000000 0.000000 0.000000
-73.274269 84.309402 343.047699 -4.344777 0.698422 -71.957760 -0.057463 0.277948 71.862883 -0.011329 -0.057109 -0.168399 9.248286 1.735689 -1.661366 0.000000 0.000000 0.000000 18.220340 16.258139 -2.684819 20.830708 -1.362152 6.716699 7.588463 2.316800 5.607966 -17.867907 -6.991195 -11.091801 0.000000 0.000000 0.000000 0.000000 0.000000 0.000000 9.945302 21.915222 0.084787 27.513916 -43.512015 36.375792 -31.424640 -22.796549 -17.403026 67.415068 -0.906161 -123.914060 0.000000 0.000000 0.000000 0.000000 0.000000 0.000000 9.225022 17.971266 71.703336 7.033381 -2.374594 1.386776 8.929077 12.902612 -11.809795 0.000000 0.000000 0.000000 17.492611 10.135804 68.953260 -36.116660 -3.451690 5.752595 17.459040 13.794462 1.653465 0.000000 0.000000 0.000000
-75.338246 84.389908 343.531225 -5.050212 0.304385 -69.528819 0.230303 0.632774 69.409699 -0.290641 0.056729 -0.193803 7.790980 1.831624 -0.986574 0.000000 0.000000 0.000000 15.967904 17.300979 -2.056524 21.179261 -2.161187 6.662588 10.005836 5.656763 4.478460 -18.726433 -8.912448 -10.672254 0.000000 0.000000 0.000000 0.000000 0.000000 0.000000 10.449707 21.379412 -0.016918 6.202273 -45.559608 9.982307 -9.752684 -16.011606 -5.339404 64.348665 -10.702720 -107.161611 0.000000 0.000000 0.000000 0.000000 0.000000 0.000000 11.669933 22.292217 68.563989 -1.788230 -1.616665 0.762155 11.005277 11.039887 -10.640542 0.000000 0.000000 0.000000 18.032703 8.572668 67.013836 -30.759870 -0.726727 5.620327 12.044081 13.563180 3.938932 0.000000 0.000000 0.000000
-77.582251 84.651090 343.891569 -5.830768 0.027053 -67.896591 0.213096 0.457007 67.736092 0.103734 -0.090260 -0.206386 6.068261 1.599033 -0.156906 0.000000 0.000000 0.000000 14.390722 17.503787 -1.528114 18.573693 -3.316359 5.952824 13.379216 7.770316 3.857153 -19.686064 -11.448068 -10.319599 0.000000 0.000000 0.000000 0.000000 0.000000 0.000000 10.304142 17.871639 -0.075786 -6.434604 -37.086399 -5.835169 -0.531470 -6.705346 1.277530 65.909794 -21.009573 -85.263089 0.000000 0.000000 0.000000 0.000000 0.000000 0.000000 14.891723 26.442982 65.935625 -12.701554 -0.187942 0.009919 11.128945 5.373630 -8.879053 0.000000 0.000000 0.000000 19.374906 6.445803 66.122455 -25.253279 4.176370 5.173997 4.672820 12.020389 7.584128 0.000000 0.000000 0.000000
-79.285288 84.927112 344.137452 -6.183780 -0.105626 -65.935215 0.119666 0.359362 65.756993 0.582388 -0.342172 -0.200741 4.406426 0.915102 0.506197 0.000000 0.000000 0.000000 11.036758 16.930279 -0.642979 17.461099 -5.102757 5.131677 14.797989 10.852240 2.506013 -19.816591 -13.591215 -9.522225 0.000000 0.000000 0.000000 0.000000 0.000000 0.000000 7.460252 3.572063 -0.452928 -8.050553 -12.788483 -8.391160 5.596101 -5.253019 5.883190 64.609989 -32.158831 -61.745989 0.000000 0.000000 0.000000 0.000000 0.000000 0.000000 16.893633 28.407191 63.214097 -21.488032 0.246225 -0.309653 8.345757 -2.785958 -7.903196 0.000000 0.000000 0.000000 19.106449 4.743386 64.789864 -19.761185 6.830807 4.058916 6.329631 16.250278 10.670566 0.000000 0.000000 0.000000
-80.603331 85.330867 344.176460 -6.008014 -0.307888 -64.665159 -0.014678 0.311291 64.485006 0.919665 -0.572164 -0.180710 1.570206 0.838123 1.273119 0.000000 0.000000 0.000000 6.982995 15.385575 0.262365 16.197259 -5.730090 3.880899 14.572606 11.013748 2.036179 -17.925136 -13.216330 -8.216299 0.000000 0.000000 0.000000 0.000000 0.000000 0.000000 4.261394 -10.114985 -1.549410 -7.494253 9.206093 -6.177133 8.348092 -8.093990 7.786801 59.640324 -40.459994 -35.625747 0.000000 0.000000 0.000000 0.000000 0.000000 0.000000 17.403160 28.079207 61.825647 -27.479435 -0.508419 -0.262054 5.489655 -8.625611 -8.403107 0.000000 0.000000 0.000000 16.384949 3.432630 64.151190 -13.411800 6.135486 2.658646 6.030909 17.054040 9.568108 0.000000 0.000000 0.000000
-81.590925 85.616442 343.958367 -5.472115 -0.201847 -64.166704 -0.139115 0.268582 64.009629 1.102462 -0.737732 -0.150938 -0.028720 0.085302 1.627614 0.000000 0.000000 0.000000 1.979588 13.802271 1.290323 16.095451 -7.793656 2.741294 14.020050 9.312941 2.200148 -12.641795 -9.961318 -6.972730 0.000000 0.000000 0.000000 0.000000 0.000000 0.000000 1.412622 -19.596909 -2.707213 -5.250044 26.275256 -1.391167 7.951123 -15.670687 5.973718 45.663788 -42.655540 -11.744892 0.000000 0.000000 0.000000 0.000000 0.000000 0.000000 16.299902 25.851560 61.883392 -30.159496 -2.112030 -0.141219 2.775803 -13.916796 -10.471369 0.000000 0.000000 0.000000 14.862801 2.406937 64.058583 -9.054992 6.186502 1.835607 5.578086 14.083039 6.020249 0.000000 0.000000 0.000000
-82.123754 85.858679 343.637910 -4.515565 0.121069 -64.536079 -0.277782 0.169767 64.416744 1.119396 -0.808188 -0.111783 -1.259548 -1.055422 1.790453 0.000000 0.000000 0.000000 -3.630179 11.253666 2.197214 17.246810 -8.691018 1.496486 11.766874 5.227968 2.634215 -10.431188 -3.474250 -5.544433 0.000000 0.000000 0.000000 0.000000 0.000000 0.000000 -0.296496 -23.057212 -3.224832 -6.314461 33.789298 -0.223325 2.531391 -16.692823 0.620594 41.116889 -41.216258 10.636282 0.000000 0.000000 0.000000 0.000000 0.000000 0.000000 13.340513 19.125729 63.693291 -25.086162 -2.722328 0.110012 -1.056349 -16.964143 -12.189349 0.000000 0.000000 0.000000 14.351454 0.004111 65.280223 -4.352913 8.072581 0.665648 0.389571 10.820542 5.742928 0.000000 0.000000 0.000000
-82.248713 85.982616 343.144774 -3.095920 0.469007 -64.593789 -0.336728 0.005350 64.512147 0.957887 -0.824931 -0.065728 -2.446658 -1.955811 1.809181 0.000000 0.000000 0.000000 -9.442458 8.701426 2.841172 16.588999 -8.716008 -0.043049 9.930271 -0.450274 2.703618 -7.495671 1.542177 -4.032382 0.000000 0.000000 0.000000 0.000000 0.000000 0.000000 -0.606050 -19.950102 -2.740730 -8.249093 31.867132 -1.700064 4.069061 -13.116141 2.877123 31.962701 -44.365782 20.303005 0.000000 0.000000 0.000000 0.000000 0.000000 0.000000 11.393638 13.281043 64.686632 -21.725950 -2.913255 0.241115 0.382471 -17.656176 -13.405307 0.000000 0.000000 0.000000 14.539980 -2.895458 66.282138 -1.219217 10.708320 -0.510690 5.012836 8.974462 2.484210 0.000000 0.000000 0.000000
